<svg display="none" xmlns="http://www.w3.org/2000/svg">
  <symbol id="back" viewBox="0 0 20 16" stroke="currentColor">
    <path d="M18 8H2M2 8L8 2M2 8L8 14" stroke="currentColor" stroke-width="2.5" stroke-linecap="round" stroke-linejoin="round"/>
  </symbol>
  <symbol id="search" viewBox="0 0 20 20" fill="none">
    <path d="M19 19L14.65 14.65M17 9C17 13.4183 13.4183 17 9 17C4.58172 17 1 13.4183 1 9C1 4.58172 4.58172 1 9 1C13.4183 1 17 4.58172 17 9Z" stroke="currentColor" stroke-width="2" stroke-linecap="round" stroke-linejoin="round"/>
  </symbol>
  <symbol id="burger" viewBox="0 0 20 14" stroke="currentColor">
    <path d="M1 7H19M1 1H19M1 13H19" stroke="#1C1D1F" stroke-width="2" stroke-linecap="round" stroke-linejoin="round"/>
  </symbol>
  <symbol id="postilla" viewBox="0 0 12 12" fill="currentColor">
    <path d="M11.5101 0H2.84812C2.59336 0 2.38432 0.209035 2.38432 0.463798V1.94012C2.38432 2.19488 2.17529 2.40392 1.92052 2.40392H0.463798C0.209035 2.40392 0 2.61296 0 2.86772V11.5362C0 11.791 0.209035 12 0.463798 12H9.13228C9.38704 12 9.59608 11.791 9.59608 11.5362V7.57757C9.59608 7.32281 9.80512 7.11377 10.0599 7.11377H11.5166C11.7714 7.11377 11.9804 6.90474 11.9804 6.64997V0.470333C11.9739 0.209037 11.7714 0 11.5101 0ZM4.50735 9.51116H2.94611C2.69134 9.51116 2.48231 9.30212 2.48231 9.04736V2.94611C2.48231 2.69134 2.69134 2.48231 2.94611 2.48231H9.02776C9.28253 2.48231 9.49156 2.69134 9.49156 2.94611V6.55852C9.49156 6.81328 9.28253 7.02232 9.02776 7.02232H5.42841C5.17365 7.02232 4.96462 7.23135 4.96462 7.48612V9.04736C4.97115 9.30212 4.76211 9.51116 4.50735 9.51116Z" fill="currentColor"/>
  </symbol>
  <symbol id="chevron-left" viewBox="0 0 8 14" fill="none">
    <path d="M7 13L1 7L7 1" stroke="currentColor" stroke-width="2" stroke-linecap="round" stroke-linejoin="round"/>
  </symbol>
  <symbol id="chevron-right" viewBox="0 0 8 13" fill="none">
    <path d="M1.5 11.5L6.5 6.5L1.5 1.5" stroke="currentColor" stroke-width="1.5" stroke-linecap="round" stroke-linejoin="round"/>
  </symbol>
  <symbol id="chevron-down" viewBox="0 0 10 6" fill="none" stroke="currentColor">
    <path d="M1 1L5 5L9 1" stroke="currentColor" stroke-width="1.5" stroke-linecap="round" stroke-linejoin="round"/>
  </symbol>
  <symbol id="heart" viewBox="0 0 22 21" fill="currentColor">
    <path fill="currentColor" d="M10.9932 4.13581L10.2332 4.78583C10.4232 5.00794 10.7009 5.13581 10.9932 5.13581C11.2854 5.13581 11.5631 5.00794 11.7531 4.78583L10.9932 4.13581ZM2.2642 11.5604L3.0538 10.9468L2.2642 11.5604ZM19.7221 11.5604L18.9325 10.9468L19.7221 11.5604ZM10.4721 19.5408L11.1351 18.7922L10.4721 19.5408ZM10.8502 19.8135L10.5643 20.7718L10.8502 19.8135ZM11.5142 19.5408L10.8512 18.7922L11.5142 19.5408ZM11.1361 19.8135L11.422 20.7718L11.1361 19.8135ZM11.7531 3.4858C9.45943 0.804338 5.50161 -0.0105488 2.5051 2.54974L3.80429 4.07029C5.81788 2.34983 8.52816 2.79246 10.2332 4.78583L11.7531 3.4858ZM2.5051 2.54974C-0.401693 5.03336 -0.824023 9.21617 1.4746 12.174L3.0538 10.9468C1.41796 8.84179 1.70098 5.86741 3.80429 4.07029L2.5051 2.54974ZM20.5117 12.174C22.8015 9.22753 22.4444 5.01246 19.4708 2.54097L18.1924 4.07906C20.315 5.84328 20.5772 8.83042 18.9325 10.9468L20.5117 12.174ZM19.4708 2.54097C16.4415 0.0231875 12.5344 0.795528 10.2332 3.4858L11.7531 4.78583C13.4506 2.80127 16.1255 2.36113 18.1924 4.07906L19.4708 2.54097ZM1.4746 12.174C2.34712 13.2968 4.05011 14.9836 5.68673 16.5283C7.3425 18.0912 8.99445 19.568 9.80911 20.2895L11.1351 18.7922C10.3274 18.0769 8.69323 16.6159 7.05954 15.0739C5.40669 13.5138 3.81689 11.9287 3.0538 10.9468L1.4746 12.174ZM12.1772 20.2895C12.9919 19.568 14.6438 18.0912 16.2996 16.5283C17.9362 14.9836 19.6392 13.2968 20.5117 12.174L18.9325 10.9468C18.1694 11.9287 16.5796 13.5138 14.9268 15.0739C13.2931 16.6159 11.6589 18.0769 10.8512 18.7922L12.1772 20.2895ZM9.80911 20.2895C9.8881 20.3594 9.99029 20.4509 10.088 20.5245C10.1974 20.6069 10.3545 20.7092 10.5643 20.7718L11.1361 18.8553C11.1859 18.8701 11.2264 18.8888 11.2555 18.9048C11.2821 18.9195 11.2954 18.93 11.2911 18.9268C11.2862 18.9231 11.2727 18.9125 11.2442 18.888C11.2156 18.8634 11.1821 18.8339 11.1351 18.7922L9.80911 20.2895ZM10.8512 18.7922C10.8042 18.8339 10.7707 18.8634 10.7421 18.888C10.7136 18.9125 10.7001 18.9231 10.6952 18.9268C10.6909 18.93 10.7042 18.9195 10.7308 18.9048C10.7599 18.8888 10.8004 18.8701 10.8502 18.8553L11.422 20.7718C11.6318 20.7092 11.7889 20.6069 11.8983 20.5245C11.996 20.4509 12.0982 20.3594 12.1772 20.2895L10.8512 18.7922ZM10.5643 20.7718C10.8433 20.855 11.1431 20.855 11.422 20.7718L10.8502 18.8553C10.9443 18.8272 11.042 18.8272 11.1361 18.8553L10.5643 20.7718Z"/>
  </symbol>
  <symbol id="heart-filled" viewBox="0 0 22 21">
    <path fill-rule="evenodd" clip-rule="evenodd" d="M10.9932 4.13581C8.9938 1.7984 5.65975 1.16964 3.15469 3.31001C0.649644 5.45038 0.296968 9.02898 2.2642 11.5604C3.89982 13.6651 8.84977 18.1041 10.4721 19.5408C10.6536 19.7016 10.7444 19.7819 10.8502 19.8135C10.9426 19.8411 11.0437 19.8411 11.1361 19.8135C11.2419 19.7819 11.3327 19.7016 11.5142 19.5408C13.1365 18.1041 18.0865 13.6651 19.7221 11.5604C21.6893 9.02898 21.3797 5.42787 18.8316 3.31001C16.2835 1.19216 12.9925 1.7984 10.9932 4.13581Z" fill="#F80848"/>
    <path d="M10.9932 4.13581L10.2332 4.78583C10.4232 5.00794 10.7009 5.13581 10.9932 5.13581C11.2854 5.13581 11.5631 5.00794 11.7531 4.78583L10.9932 4.13581ZM2.2642 11.5604L3.0538 10.9468L2.2642 11.5604ZM19.7221 11.5604L18.9325 10.9468L19.7221 11.5604ZM10.4721 19.5408L11.1351 18.7922L10.4721 19.5408ZM10.8502 19.8135L10.5643 20.7718L10.8502 19.8135ZM11.5142 19.5408L10.8512 18.7922L11.5142 19.5408ZM11.1361 19.8135L11.422 20.7718L11.1361 19.8135ZM11.7531 3.4858C9.45943 0.804338 5.50161 -0.0105488 2.5051 2.54974L3.80429 4.07029C5.81788 2.34983 8.52816 2.79246 10.2332 4.78583L11.7531 3.4858ZM2.5051 2.54974C-0.401693 5.03336 -0.824023 9.21617 1.4746 12.174L3.0538 10.9468C1.41796 8.84179 1.70098 5.86741 3.80429 4.07029L2.5051 2.54974ZM20.5117 12.174C22.8015 9.22753 22.4444 5.01246 19.4708 2.54097L18.1924 4.07906C20.315 5.84328 20.5772 8.83042 18.9325 10.9468L20.5117 12.174ZM19.4708 2.54097C16.4415 0.0231875 12.5344 0.795528 10.2332 3.4858L11.7531 4.78583C13.4506 2.80127 16.1255 2.36113 18.1924 4.07906L19.4708 2.54097ZM1.4746 12.174C2.34712 13.2968 4.05011 14.9836 5.68673 16.5283C7.3425 18.0912 8.99445 19.568 9.80911 20.2895L11.1351 18.7922C10.3274 18.0769 8.69323 16.6159 7.05954 15.0739C5.40669 13.5138 3.81689 11.9287 3.0538 10.9468L1.4746 12.174ZM12.1772 20.2895C12.9919 19.568 14.6438 18.0912 16.2996 16.5283C17.9362 14.9836 19.6392 13.2968 20.5117 12.174L18.9325 10.9468C18.1694 11.9287 16.5796 13.5138 14.9268 15.0739C13.2931 16.6159 11.6589 18.0769 10.8512 18.7922L12.1772 20.2895ZM9.80911 20.2895C9.8881 20.3594 9.99029 20.4509 10.088 20.5245C10.1974 20.6069 10.3545 20.7092 10.5643 20.7718L11.1361 18.8553C11.1859 18.8701 11.2264 18.8888 11.2555 18.9048C11.2821 18.9195 11.2954 18.93 11.2911 18.9268C11.2862 18.9231 11.2727 18.9125 11.2442 18.888C11.2156 18.8634 11.1821 18.8339 11.1351 18.7922L9.80911 20.2895ZM10.8512 18.7922C10.8042 18.8339 10.7707 18.8634 10.7421 18.888C10.7136 18.9125 10.7001 18.9231 10.6952 18.9268C10.6909 18.93 10.7042 18.9195 10.7308 18.9048C10.7599 18.8888 10.8004 18.8701 10.8502 18.8553L11.422 20.7718C11.6318 20.7092 11.7889 20.6069 11.8983 20.5245C11.996 20.4509 12.0982 20.3594 12.1772 20.2895L10.8512 18.7922ZM10.5643 20.7718C10.8433 20.855 11.1431 20.855 11.422 20.7718L10.8502 18.8553C10.9443 18.8272 11.042 18.8272 11.1361 18.8553L10.5643 20.7718Z" fill="#F80848"/>
  </symbol>
  <symbol id="share" viewBox="0 0 20 22" stroke="currentColor">
    <path d="M6.59 12.51L13.42 16.49M13.41 5.51L6.59 9.49M19 4C19 5.65685 17.6569 7 16 7C14.3431 7 13 5.65685 13 4C13 2.34315 14.3431 1 16 1C17.6569 1 19 2.34315 19 4ZM7 11C7 12.6569 5.65685 14 4 14C2.34315 14 1 12.6569 1 11C1 9.34315 2.34315 8 4 8C5.65685 8 7 9.34315 7 11ZM19 18C19 19.6569 17.6569 21 16 21C14.3431 21 13 19.6569 13 18C13 16.3431 14.3431 15 16 15C17.6569 15 19 16.3431 19 18Z" stroke="currentColor" stroke-width="2" stroke-linecap="round" stroke-linejoin="round"/>
  </symbol>
  <symbol id="add" viewBox="0 0 12 12">
    <path d="M6.00016 1.33331V10.6666M1.3335 5.99998H10.6668" stroke="currentColor" stroke-width="1.5" stroke-linecap="round" stroke-linejoin="round"/>
  </symbol>
  <symbol id="remove" viewBox="0 0 12 2" stroke="currentColor">
    <path d="M1.33301 1.00003H10.6663" stroke="currentColor" stroke-width="1.5" stroke-linecap="round" stroke-linejoin="round"/>
  </symbol>
  <symbol id="close" viewBox="0 0 18 18">
    <path d="M17 1L1 17M1 1L17 17" stroke="currentColor" stroke-width="2" stroke-linecap="round" stroke-linejoin="round"/>
  </symbol>
  <symbol id="geo" viewBox="0 0 22 22" fill="none">
    <path d="M9.6271 12.8283L8.6951 13.1907L9.6271 12.8283ZM9.52031 12.5961L10.3344 12.0154L9.52031 12.5961ZM9.17146 12.3726L9.5339 11.4406L9.17146 12.3726ZM9.40361 12.4794L9.98432 11.6653L9.40361 12.4794ZM13.7461 19.5871L14.6777 19.9507L13.7461 19.5871ZM13.2308 20.5665L12.7698 19.6791L13.2308 20.5665ZM12.2552 19.5863L13.1872 19.2238L12.2552 19.5863ZM12.7693 20.5662L12.3072 21.453L12.7693 20.5662ZM19.3003 1.6633L18.9368 0.731727L19.3003 1.6633ZM20.2777 1.40619L19.9609 2.35467L20.2777 1.40619ZM20.3364 2.6994L19.4048 2.33586L20.3364 2.6994ZM20.5935 1.722L19.6451 2.03886L20.5935 1.722ZM2.41258 8.25364L2.04904 7.32207L2.41258 8.25364ZM1.43326 8.76889L2.32065 9.2299L1.43326 8.76889ZM2.41345 9.74451L2.05101 10.6765H2.05101L2.41345 9.74451ZM1.43353 9.23042L0.546679 9.69248L1.43353 9.23042ZM2.77612 9.18522L19.6639 2.59488L18.9368 0.731727L2.04904 7.32207L2.77612 9.18522ZM19.4048 2.33586L12.8145 19.2236L14.6777 19.9507L21.268 3.06294L19.4048 2.33586ZM13.1872 19.2238L10.5591 12.4658L8.6951 13.1907L11.3232 19.9487L13.1872 19.2238ZM9.5339 11.4406L2.7759 8.8125L2.05101 10.6765L8.80901 13.3046L9.5339 11.4406ZM10.5591 12.4658C10.5305 12.3922 10.4602 12.1918 10.3344 12.0154L8.7062 13.1768C8.69828 13.1657 8.69104 13.1548 8.6845 13.1443C8.678 13.1339 8.6726 13.1245 8.66827 13.1166C8.65985 13.1012 8.6557 13.0917 8.65618 13.0927C8.65635 13.0931 8.65731 13.0953 8.65925 13.1C8.66119 13.1046 8.66376 13.1109 8.66718 13.1195C8.67061 13.128 8.67454 13.138 8.67927 13.1501C8.68403 13.1622 8.68914 13.1754 8.6951 13.1907L10.5591 12.4658ZM8.80901 13.3046C8.82434 13.3106 8.83748 13.3157 8.84964 13.3205C8.86172 13.3252 8.87169 13.3291 8.88026 13.3325C8.88882 13.336 8.8951 13.3385 8.89975 13.3405C8.9044 13.3424 8.90659 13.3434 8.90697 13.3435C8.90805 13.344 8.89856 13.3399 8.88317 13.3315C8.87524 13.3271 8.86587 13.3217 8.85542 13.3152C8.84491 13.3087 8.83401 13.3014 8.8229 13.2935L9.98432 11.6653C9.80793 11.5395 9.60751 11.4692 9.5339 11.4406L8.80901 13.3046ZM10.3344 12.0154C10.2379 11.8801 10.1196 11.7618 9.98432 11.6653L8.8229 13.2935C8.77781 13.2614 8.73837 13.2219 8.7062 13.1768L10.3344 12.0154ZM12.8145 19.2236C12.7556 19.3746 12.7079 19.4967 12.6654 19.6007C12.6225 19.7057 12.5914 19.7759 12.5676 19.8242C12.5422 19.8755 12.5382 19.8746 12.5564 19.8509C12.5766 19.8247 12.6436 19.7446 12.7698 19.6791L13.6919 21.4539C14.0855 21.2494 14.2751 20.883 14.3604 20.7107C14.4633 20.5024 14.5687 20.2299 14.6777 19.9507L12.8145 19.2236ZM11.3232 19.9487C11.4319 20.2281 11.5369 20.5007 11.6396 20.7091C11.7246 20.8815 11.9139 21.2481 12.3072 21.453L13.2314 19.6793C13.3575 19.7451 13.4244 19.8252 13.4445 19.8514C13.4628 19.8752 13.4587 19.876 13.4335 19.8247C13.4096 19.7764 13.3786 19.7061 13.3359 19.6011C13.2935 19.497 13.246 19.3749 13.1872 19.2238L11.3232 19.9487ZM12.7698 19.6791C12.9145 19.6039 13.0868 19.604 13.2314 19.6793L12.3072 21.453C12.741 21.6791 13.2578 21.6794 13.6919 21.4539L12.7698 19.6791ZM19.6639 2.59488C19.8004 2.54158 19.9096 2.49901 20.0037 2.46405C20.0986 2.42879 20.1616 2.40755 20.205 2.39494C20.251 2.38161 20.248 2.38604 20.2151 2.38891C20.1781 2.39214 20.0825 2.39529 19.9609 2.35467L20.5946 0.457719C20.1988 0.325505 19.8303 0.421118 19.6472 0.474329C19.438 0.53508 19.1869 0.634139 18.9368 0.731727L19.6639 2.59488ZM21.268 3.06294C21.3656 2.81287 21.4646 2.56171 21.5254 2.35256C21.5786 2.16938 21.6742 1.80092 21.542 1.40515L19.6451 2.03886C19.6044 1.91725 19.6076 1.82161 19.6108 1.7846C19.6137 1.75175 19.6181 1.74877 19.6048 1.79468C19.5922 1.83808 19.5709 1.90108 19.5357 1.99598C19.5007 2.09011 19.4581 2.19928 19.4048 2.33586L21.268 3.06294ZM19.9609 2.35467C19.8118 2.30487 19.6948 2.18791 19.6451 2.03886L21.542 1.40515C21.3926 0.958002 21.0417 0.607097 20.5946 0.457719L19.9609 2.35467ZM2.04904 7.32207C1.76979 7.43104 1.4973 7.53638 1.28905 7.63935C1.11669 7.72458 0.750351 7.91426 0.545864 8.30787L2.32065 9.2299C2.25509 9.3561 2.17501 9.42316 2.14884 9.44328C2.12508 9.46156 2.12427 9.4575 2.17552 9.43217C2.2238 9.40829 2.29406 9.37722 2.39899 9.33434C2.50305 9.29181 2.62513 9.24414 2.77612 9.18522L2.04904 7.32207ZM2.7759 8.81251C2.62484 8.75376 2.50271 8.70623 2.3986 8.66383C2.29362 8.62108 2.22331 8.59008 2.17501 8.56627C2.12373 8.54099 2.12453 8.53694 2.14832 8.55519C2.17451 8.57528 2.25467 8.64224 2.32038 8.76836L0.546679 9.69248C0.751628 10.0858 1.11819 10.2751 1.29065 10.3601C1.49902 10.4628 1.77164 10.5679 2.05101 10.6765L2.7759 8.81251ZM0.545864 8.30787C0.320362 8.74193 0.320666 9.25868 0.546679 9.69248L2.32038 8.76836C2.39572 8.91296 2.39582 9.08521 2.32065 9.2299L0.545864 8.30787Z" fill="#1C1D1F"/>
  </symbol>
  <symbol id="payment" viewBox="0 0 22 16" fill="none">
    <path d="M21 7.00003C21.5523 7.00003 22 6.55231 22 6.00003C22 5.44775 21.5523 5.00003 21 5.00003V7.00003ZM1 5.00003C0.447715 5.00003 0 5.44775 0 6.00003C0 6.55231 0.447715 7.00003 1 7.00003V5.00003ZM1 4.20003H2H1ZM1.21799 2.09205L2.10899 2.54604L1.21799 2.09205ZM4.2 1.00003V3.05176e-05V1.00003ZM2.09202 1.21802L1.63803 0.327011L2.09202 1.21802ZM4.2 15L4.2 14H4.2V15ZM2.09202 14.782L2.54601 13.891L2.09202 14.782ZM1 11.8H5.96046e-08H1ZM1.21799 13.908L0.32698 14.362L1.21799 13.908ZM20.782 13.908L19.891 13.454L20.782 13.908ZM17.8 15V16V15ZM19.908 14.782L19.454 13.891L19.908 14.782ZM20.782 2.09205L21.673 1.63806L20.782 2.09205ZM17.8 1.00003V2.00003V1.00003ZM19.908 1.21802L19.454 2.10903L19.908 1.21802ZM21 5.00003H1V7.00003H21V5.00003ZM20 4.20003V11.8H22V4.20003H20ZM17.8 14L4.2 14L4.2 16L17.8 16V14ZM2 11.8L2 4.20003H2.38419e-07L5.96046e-08 11.8H2ZM4.2 2.00003L17.8 2.00003V3.17693e-05L4.2 3.05176e-05V2.00003ZM2 4.20003C2 3.62348 2.00078 3.2512 2.02393 2.96787C2.04612 2.6962 2.0838 2.59548 2.10899 2.54604L0.326981 1.63806C0.134187 2.01644 0.0628707 2.40966 0.0305697 2.805C-0.000777483 3.18867 2.38419e-07 3.65648 2.38419e-07 4.20003H2ZM4.2 3.05176e-05C3.65645 3.05176e-05 3.18864 -0.000747323 2.80497 0.0305998C2.40963 0.0629008 2.01641 0.134217 1.63803 0.327011L2.54601 2.10902C2.59545 2.08383 2.69617 2.04615 2.96784 2.02396C3.25117 2.00081 3.62345 2.00003 4.2 2.00003V3.05176e-05ZM2.10899 2.54604C2.20487 2.35788 2.35785 2.2049 2.54601 2.10902L1.63803 0.327011C1.07354 0.614631 0.614601 1.07357 0.326981 1.63806L2.10899 2.54604ZM4.2 14C3.62345 14 3.25117 13.9993 2.96784 13.9761C2.69617 13.9539 2.59545 13.9162 2.54601 13.891L1.63803 15.673C2.01641 15.8658 2.40963 15.9372 2.80497 15.9695C3.18864 16.0008 3.65645 16 4.2 16V14ZM5.96046e-08 11.8C5.96046e-08 12.3436 -0.000777602 12.8114 0.0305695 13.1951C0.0628704 13.5904 0.134186 13.9836 0.32698 14.362L2.10899 13.454C2.0838 13.4046 2.04612 13.3039 2.02393 13.0322C2.00078 12.7489 2 12.3766 2 11.8H5.96046e-08ZM2.54601 13.891C2.35785 13.7952 2.20487 13.6422 2.10899 13.454L0.32698 14.362C0.6146 14.9265 1.07354 15.3854 1.63803 15.673L2.54601 13.891ZM20 11.8C20 12.3766 19.9992 12.7489 19.9761 13.0322C19.9539 13.3039 19.9162 13.4046 19.891 13.454L21.673 14.362C21.8658 13.9836 21.9371 13.5904 21.9694 13.1951C22.0008 12.8114 22 12.3436 22 11.8H20ZM17.8 16C18.3436 16 18.8114 16.0008 19.195 15.9695C19.5904 15.9372 19.9836 15.8658 20.362 15.673L19.454 13.891C19.4045 13.9162 19.3038 13.9539 19.0322 13.9761C18.7488 13.9993 18.3766 14 17.8 14V16ZM19.891 13.454C19.7951 13.6422 19.6422 13.7952 19.454 13.891L20.362 15.673C20.9265 15.3854 21.3854 14.9265 21.673 14.362L19.891 13.454ZM22 4.20003C22 3.65648 22.0008 3.18868 21.9694 2.80501C21.9371 2.40966 21.8658 2.01644 21.673 1.63806L19.891 2.54604C19.9162 2.59548 19.9539 2.6962 19.9761 2.96787C19.9992 3.2512 20 3.62348 20 4.20003H22ZM17.8 2.00003C18.3766 2.00003 18.7488 2.00081 19.0322 2.02396C19.3038 2.04615 19.4045 2.08383 19.454 2.10903L20.362 0.327012C19.9836 0.134218 19.5904 0.0629024 19.195 0.0306014C18.8114 -0.000745893 18.3436 3.18289e-05 17.8 3.17693e-05V2.00003ZM21.673 1.63806C21.3854 1.07357 20.9265 0.614632 20.362 0.327012L19.454 2.10903C19.6422 2.2049 19.7951 2.35788 19.891 2.54604L21.673 1.63806Z" fill="currentColor"/>
  </symbol>
  <symbol id="bag" viewBox="0 0 22 20" fill="currentColor">
    <path fill="currentColor" d="M2.63281 5.40138L3.62935 5.48443L2.63281 5.40138ZM3.17071 2.48486L2.30762 1.97981L3.17071 2.48486ZM7.41623 1V0V1ZM4.4651 1.29384L4.89673 2.1959L4.4651 1.29384ZM3.33177 18.6382L3.80785 17.7588L3.33177 18.6382ZM1.93281 13.8014L0.936261 13.7183L1.93281 13.8014ZM2.01227 17.2042L2.92818 16.8028L2.01227 17.2042ZM20.0664 13.8014L19.0698 13.8844V13.8844L20.0664 13.8014ZM19.9869 17.2042L19.071 16.8028L19.9869 17.2042ZM18.6674 18.6382L18.1913 17.7588L18.6674 18.6382ZM19.3664 5.40138L20.3629 5.31834L19.3664 5.40138ZM18.8285 2.48486L17.9654 2.9899L18.8285 2.48486ZM14.583 1V2V1ZM17.5341 1.29385L17.9657 0.391794L17.5341 1.29385ZM15.9996 6C15.9996 5.44771 15.5519 5 14.9996 5C14.4473 5 13.9996 5.44771 13.9996 6H15.9996ZM10.9996 10V11V10ZM7.99959 6C7.99959 5.44771 7.55187 5 6.99959 5C6.4473 5 5.99959 5.44771 5.99959 6H7.99959ZM18.3698 5.48443L19.0698 13.8844L21.0629 13.7183L20.3629 5.31834L18.3698 5.48443ZM15.283 18H6.71623V20H15.283V18ZM2.92935 13.8844L3.62935 5.48443L1.63626 5.31834L0.936261 13.7183L2.92935 13.8844ZM7.41623 2L14.583 2V8.34465e-07L7.41623 0V2ZM3.62935 5.48443C3.69536 4.69239 3.74078 4.15601 3.80829 3.74227C3.87382 3.34067 3.94907 3.13471 4.0338 2.9899L2.30762 1.97981C2.04853 2.42258 1.91952 2.89856 1.8344 3.42017C1.75126 3.92965 1.69964 4.55775 1.63626 5.31834L3.62935 5.48443ZM7.41623 0C6.653 -1.19209e-07 6.02279 -0.000720978 5.50817 0.0398188C4.98129 0.0813242 4.49623 0.170365 4.03348 0.391792L4.89673 2.1959C5.04808 2.12348 5.25958 2.0656 5.66523 2.03364C6.08314 2.00072 6.62144 2 7.41623 2V0ZM4.0338 2.9899C4.23565 2.64496 4.53622 2.3684 4.89673 2.1959L4.03348 0.391792C3.31245 0.736802 2.71132 1.28992 2.30762 1.97981L4.0338 2.9899ZM6.71623 18C5.79366 18 5.16403 17.9992 4.6796 17.9583C4.20589 17.9184 3.96868 17.8459 3.80785 17.7588L2.8557 19.5176C3.36316 19.7923 3.91278 19.9007 4.51153 19.9512C5.09956 20.0008 5.82802 20 6.71623 20V18ZM0.936261 13.7183C0.862499 14.6035 0.801176 15.3293 0.801762 15.9195C0.802359 16.5203 0.864747 17.0771 1.09637 17.6056L2.92818 16.8028C2.85477 16.6353 2.80223 16.3929 2.80176 15.9175C2.80128 15.4313 2.85274 14.8038 2.92935 13.8844L0.936261 13.7183ZM3.80785 17.7588C3.41641 17.5469 3.10685 17.2105 2.92818 16.8028L1.09637 17.6056C1.4537 18.4209 2.07283 19.0938 2.8557 19.5176L3.80785 17.7588ZM19.0698 13.8844C19.1464 14.8038 19.1979 15.4313 19.1974 15.9175C19.1969 16.3929 19.1444 16.6353 19.071 16.8028L20.9028 17.6056C21.1344 17.0771 21.1968 16.5203 21.1974 15.9195C21.198 15.3293 21.1367 14.6035 21.0629 13.7183L19.0698 13.8844ZM15.283 20C16.1712 20 16.8996 20.0008 17.4876 19.9512C18.0864 19.9007 18.636 19.7923 19.1435 19.5176L18.1913 17.7588C18.0305 17.8459 17.7933 17.9184 17.3196 17.9583C16.8351 17.9992 16.2055 18 15.283 18V20ZM19.071 16.8028C18.8923 17.2105 18.5828 17.5469 18.1913 17.7588L19.1435 19.5176C19.9263 19.0938 20.5455 18.4209 20.9028 17.6056L19.071 16.8028ZM20.3629 5.31834C20.2995 4.55775 20.2479 3.92965 20.1648 3.42017C20.0797 2.89856 19.9506 2.42258 19.6916 1.97981L17.9654 2.9899C18.0501 3.13471 18.1254 3.34068 18.1909 3.74228C18.2584 4.15601 18.3038 4.69239 18.3698 5.48443L20.3629 5.31834ZM14.583 2C15.3777 2 15.916 2.00072 16.3339 2.03364C16.7396 2.0656 16.9511 2.12348 17.1024 2.1959L17.9657 0.391794C17.5029 0.170367 17.0179 0.0813256 16.491 0.0398201C15.9764 -0.000719786 15.3462 9.53674e-07 14.583 8.34465e-07V2ZM19.6916 1.97981C19.2879 1.28992 18.6867 0.736804 17.9657 0.391794L17.1024 2.1959C17.463 2.3684 17.7635 2.64496 17.9654 2.9899L19.6916 1.97981ZM13.9996 6C13.9996 6.79565 13.6835 7.55871 13.1209 8.12132L14.5351 9.53553C15.4728 8.59785 15.9996 7.32608 15.9996 6H13.9996ZM13.1209 8.12132C12.5583 8.68393 11.7952 9 10.9996 9V11C12.3257 11 13.5974 10.4732 14.5351 9.53553L13.1209 8.12132ZM10.9996 9C10.2039 9 9.44088 8.68393 8.87827 8.12132L7.46405 9.53553C8.40174 10.4732 9.67351 11 10.9996 11V9ZM8.87827 8.12132C8.31566 7.55871 7.99959 6.79565 7.99959 6H5.99959C5.99959 7.32608 6.52637 8.59785 7.46405 9.53553L8.87827 8.12132Z" />
  </symbol>
  <symbol id="clear" viewBox="0 0 18 20" stroke="currentColor">
    <path d="M12.3333 5V4.33333C12.3333 3.39991 12.3333 2.9332 12.1517 2.57668C11.9919 2.26308 11.7369 2.00811 11.4233 1.84832C11.0668 1.66666 10.6001 1.66666 9.66667 1.66666H8.33333C7.39991 1.66666 6.9332 1.66666 6.57668 1.84832C6.26308 2.00811 6.00811 2.26308 5.84832 2.57668C5.66667 2.9332 5.66667 3.39991 5.66667 4.33333V5M1.5 5H16.5M14.8333 5V14.3333C14.8333 15.7335 14.8333 16.4335 14.5608 16.9683C14.3212 17.4387 13.9387 17.8212 13.4683 18.0608C12.9335 18.3333 12.2335 18.3333 10.8333 18.3333H7.16667C5.76654 18.3333 5.06647 18.3333 4.53169 18.0608C4.06129 17.8212 3.67883 17.4387 3.43915 16.9683C3.16667 16.4335 3.16667 15.7335 3.16667 14.3333V5" stroke="currentColor" fill="none" stroke-width="1.5" stroke-linecap="round" stroke-linejoin="round"/>
  </symbol>
  <symbol id="exit" viewBox="0 0 20 20">
    <path d="M13.2929 14.2929C12.9024 14.6834 12.9024 15.3166 13.2929 15.7071C13.6834 16.0977 14.3166 16.0977 14.7071 15.7071L13.2929 14.2929ZM19 10L19.7071 10.7071C20.0976 10.3166 20.0976 9.68345 19.7071 9.29292L19 10ZM14.7071 4.29292C14.3166 3.9024 13.6834 3.9024 13.2929 4.29292C12.9024 4.68345 12.9024 5.31661 13.2929 5.70714L14.7071 4.29292ZM7 9.00003C6.44772 9.00003 6 9.44775 6 10C6 10.5523 6.44772 11 7 11V9.00003ZM7 2.00003C7.55229 2.00003 8 1.55232 8 1.00003C8 0.447746 7.55229 3.05176e-05 7 3.05176e-05V2.00003ZM7 20C7.55229 20 8 19.5523 8 19C8 18.4477 7.55229 18 7 18V20ZM1.32698 17.362L2.21799 16.908L2.21799 16.908L1.32698 17.362ZM2.63803 18.673L2.18404 19.5641H2.18404L2.63803 18.673ZM1.32698 2.63806L2.21799 3.09205L2.21799 3.09205L1.32698 2.63806ZM2.63803 1.32701L3.09202 2.21802H3.09202L2.63803 1.32701ZM14.7071 15.7071L19.7071 10.7071L18.2929 9.29292L13.2929 14.2929L14.7071 15.7071ZM19.7071 9.29292L14.7071 4.29292L13.2929 5.70714L18.2929 10.7071L19.7071 9.29292ZM19 9.00003H7V11H19V9.00003ZM0 5.80003V14.2H2V5.80003H0ZM7 3.05176e-05H5.8V2.00003H7V3.05176e-05ZM5.8 20H7V18H5.8V20ZM0 14.2C0 15.0236 -0.000777721 15.7014 0.0441937 16.2519C0.0901188 16.814 0.188683 17.3307 0.435974 17.816L2.21799 16.908C2.1383 16.7516 2.07337 16.5274 2.03755 16.089C2.00078 15.6389 2 15.0566 2 14.2H0ZM5.8 18C4.94342 18 4.36113 17.9993 3.91104 17.9625C3.47262 17.9267 3.24842 17.8617 3.09202 17.782L2.18404 19.5641C2.66937 19.8113 3.18608 19.9099 3.74817 19.9558C4.2986 20.0008 4.97642 20 5.8 20V18ZM0.435974 17.816C0.819468 18.5686 1.43139 19.1806 2.18404 19.5641L3.09202 17.782C2.71569 17.5903 2.40973 17.2843 2.21799 16.908L0.435974 17.816ZM2 5.80003C2 4.94345 2.00078 4.36116 2.03755 3.91107C2.07337 3.47265 2.1383 3.24845 2.21799 3.09205L0.435975 2.18407C0.188684 2.6694 0.0901191 3.18611 0.0441937 3.7482C-0.000777721 4.29863 0 4.97645 0 5.80003H2ZM5.8 3.05176e-05C4.97642 3.05176e-05 4.2986 -0.000747204 3.74817 0.0442241C3.18608 0.0901493 2.66937 0.188714 2.18404 0.436004L3.09202 2.21802C3.24842 2.13833 3.47262 2.0734 3.91104 2.03758C4.36113 2.00081 4.94342 2.00003 5.8 2.00003V3.05176e-05ZM2.21799 3.09205C2.40973 2.71573 2.7157 2.40976 3.09202 2.21802L2.18404 0.436004C1.43139 0.819498 0.819468 1.43142 0.435975 2.18407L2.21799 3.09205Z" fill="#1C1D1F"/>
  </symbol>
  <symbol id="location" viewBox="0 0 18 22">
    <path d="M9 21L8.29289 21.7071C8.68342 22.0977 9.31658 22.0977 9.70711 21.7071L9 21ZM11 9.00003C11 10.1046 10.1046 11 9 11V13C11.2091 13 13 11.2092 13 9.00003H11ZM9 11C7.89543 11 7 10.1046 7 9.00003H5C5 11.2092 6.79086 13 9 13V11ZM7 9.00003C7 7.89546 7.89543 7.00003 9 7.00003V5.00003C6.79086 5.00003 5 6.79089 5 9.00003H7ZM9 7.00003C10.1046 7.00003 11 7.89546 11 9.00003H13C13 6.79089 11.2091 5.00003 9 5.00003V7.00003ZM16 9.00003C16 10.8921 15.1468 12.6781 13.7077 14.5467C12.2588 16.4281 10.3261 18.2597 8.29289 20.2929L9.70711 21.7071C11.6739 19.7404 13.7412 17.7811 15.2923 15.767C16.8532 13.7403 18 11.5262 18 9.00003H16ZM9.70711 20.2929C7.67389 18.2597 5.74122 16.4281 4.29228 14.5467C2.85317 12.6781 2 10.8921 2 9.00003H0C0 11.5262 1.14683 13.7403 2.70772 15.767C4.25878 17.7811 6.32611 19.7404 8.29289 21.7071L9.70711 20.2929ZM2 9.00003C2 5.13404 5.13401 2.00003 9 2.00003V3.05176e-05C4.02944 3.05176e-05 0 4.02947 0 9.00003H2ZM9 2.00003C12.866 2.00003 16 5.13404 16 9.00003H18C18 4.02947 13.9706 3.05176e-05 9 3.05176e-05V2.00003Z" fill="currentColor"/>
  </symbol>
  <symbol id="question" viewBox="0 0 22 22">
    <path d="M7.90627 8.42042C7.723 8.94141 7.99678 9.51233 8.51777 9.6956C9.03876 9.87887 9.60967 9.6051 9.79294 9.08411L7.90627 8.42042ZM13.2189 9.50171L12.2189 9.50022V9.50171H13.2189ZM10.6543 10.8013C10.1304 10.976 9.8472 11.5423 10.0218 12.0663C10.1965 12.5902 10.7628 12.8734 11.2868 12.6987L10.6543 10.8013ZM10.9995 13.75C10.4472 13.75 9.99951 14.1977 9.99951 14.75C9.99951 15.3023 10.4472 15.75 10.9995 15.75V13.75ZM11.0095 15.75C11.5618 15.75 12.0095 15.3023 12.0095 14.75C12.0095 14.1977 11.5618 13.75 11.0095 13.75V15.75ZM20 11C20 15.9706 15.9706 20 11 20V22C17.0751 22 22 17.0752 22 11H20ZM11 20C6.02944 20 2 15.9706 2 11H0C0 17.0752 4.92487 22 11 22V20ZM2 11C2 6.02947 6.02944 2.00003 11 2.00003V3.05176e-05C4.92487 3.05176e-05 0 4.9249 0 11H2ZM11 2.00003C15.9706 2.00003 20 6.02947 20 11H22C22 4.9249 17.0751 3.05176e-05 11 3.05176e-05V2.00003ZM9.79294 9.08411C9.89077 8.80601 10.0839 8.57151 10.338 8.42214L9.32466 6.69787C8.6633 7.08656 8.16084 7.69677 7.90627 8.42042L9.79294 9.08411ZM10.338 8.42214C10.5922 8.27277 10.891 8.21816 11.1816 8.268L11.5197 6.29679C10.7636 6.1671 9.98602 6.30918 9.32466 6.69787L10.338 8.42214ZM11.1816 8.268C11.4721 8.31784 11.7357 8.46891 11.9255 8.69444L13.4556 7.40644C12.9615 6.81957 12.2758 6.42648 11.5197 6.29679L11.1816 8.268ZM11.9255 8.69444C12.1154 8.91997 12.2193 9.20541 12.2189 9.50022L14.2188 9.5032C14.22 8.73608 13.9496 7.9933 13.4556 7.40644L11.9255 8.69444ZM12.2189 9.50171C12.2189 9.72028 12.0417 10.0214 11.54 10.3559C11.3196 10.5028 11.0921 10.6173 10.9157 10.6957C10.8289 10.7343 10.758 10.7626 10.7111 10.7804C10.6878 10.7893 10.6706 10.7955 10.6608 10.799C10.6558 10.8008 10.6527 10.8019 10.6516 10.8022C10.6511 10.8024 10.651 10.8025 10.6514 10.8023C10.6516 10.8022 10.652 10.8021 10.6525 10.802C10.6527 10.8019 10.653 10.8018 10.6533 10.8017C10.6534 10.8016 10.6537 10.8015 10.6538 10.8015C10.654 10.8014 10.6543 10.8013 10.9705 11.75C11.2868 12.6987 11.287 12.6986 11.2873 12.6985C11.2874 12.6985 11.2878 12.6984 11.288 12.6983C11.2884 12.6982 11.2889 12.698 11.2894 12.6978C11.2904 12.6975 11.2916 12.6971 11.2929 12.6967C11.2955 12.6958 11.2986 12.6947 11.3023 12.6934C11.3097 12.6909 11.3193 12.6876 11.3308 12.6835C11.3538 12.6753 11.385 12.6639 11.4231 12.6494C11.4992 12.6204 11.6039 12.5784 11.728 12.5233C11.9732 12.4143 12.3077 12.2478 12.6494 12.02C13.2719 11.605 14.2189 10.782 14.2189 9.50171H12.2189ZM10.9995 15.75H11.0095V13.75H10.9995V15.75Z" fill="#1C1D1F"/>
  </symbol>
  <symbol id="more" viewBox="0 0 4 18">
    <path d="M2 10C2.55228 10 3 9.55228 3 9C3 8.44772 2.55228 8 2 8C1.44772 8 1 8.44772 1 9C1 9.55228 1.44772 10 2 10Z" stroke="#000000" stroke-width="2" stroke-linecap="round" stroke-linejoin="round"/>
    <path d="M2 3C2.55228 3 3 2.55228 3 2C3 1.44772 2.55228 1 2 1C1.44772 1 1 1.44772 1 2C1 2.55228 1.44772 3 2 3Z" stroke="#000000" stroke-width="2" stroke-linecap="round" stroke-linejoin="round"/>
    <path d="M2 17C2.55228 17 3 16.5523 3 16C3 15.4477 2.55228 15 2 15C1.44772 15 1 15.4477 1 16C1 16.5523 1.44772 17 2 17Z" stroke="#000000" stroke-width="2" stroke-linecap="round" stroke-linejoin="round"/>
  </symbol>
  <symbol id="mark" viewBox="0 0 22 22" fill="none">
    <path d="M19 11C19 15.4183 15.4183 19 11 19M19 11C19 6.58172 15.4183 3 11 3M19 11H21M11 19C6.58172 19 3 15.4183 3 11M11 19V21M3 11C3 6.58172 6.58172 3 11 3M3 11H1M11 3V1M14 11C14 12.6569 12.6569 14 11 14C9.34315 14 8 12.6569 8 11C8 9.34315 9.34315 8 11 8C12.6569 8 14 9.34315 14 11Z" stroke="currentColor" stroke-width="2" stroke-linecap="round" stroke-linejoin="round"/>
  </symbol>
  <symbol id="gear" viewBox="0 0 10 10" fill="none">
    <path d="M9.67093 3.2609C9.47463 2.7394 9.19182 2.25469 8.83453 1.8271L7.09132 2.5943L6.03712 1.9857L5.82952 0.0836C5.55573 0.0326 5.27803 0.00464 4.99953 0C4.72102 0.00464 4.44333 0.0326 4.16953 0.0836L3.96152 1.9857L2.90732 2.5943L1.16502 1.8271C0.807555 2.25467 0.524635 2.73938 0.328125 3.2609L1.87012 4.3909V5.6082L0.328125 6.7382C0.524305 7.2598 0.807075 7.7446 1.16453 8.1721L2.90773 7.4048L3.96193 8.0135L4.16992 9.9156C4.44362 9.9668 4.72113 9.9951 4.99953 10C5.27803 9.9954 5.55573 9.9674 5.82952 9.9164L6.03753 8.0143L7.09173 7.4056L8.83492 8.1729C9.19222 7.7452 9.47493 7.2605 9.67133 6.739L8.12932 5.609V4.3913L9.67093 3.2609ZM4.99953 6.25C4.75233 6.25 4.51062 6.1767 4.30503 6.0393C4.09952 5.902 3.93932 5.7068 3.84472 5.4784C3.75002 5.2499 3.72533 4.9986 3.77353 4.7561C3.82173 4.5137 3.94083 4.2909 4.11563 4.1161C4.29043 3.9413 4.51322 3.8222 4.75562 3.774C4.99812 3.7258 5.24943 3.7505 5.47793 3.8452C5.70633 3.9398 5.90153 4.1 6.03883 4.3055C6.17623 4.5111 6.24953 4.7528 6.24953 5C6.24953 5.3315 6.11782 5.6495 5.88342 5.8839C5.64902 6.1183 5.33103 6.25 4.99953 6.25Z" fill="currentColor"/>
  </symbol>
  <symbol id="pay-online" viewBox="0 0 22 18" fill="none">
    <path d="M21 7.00006C21.5523 7.00006 22 6.55235 22 6.00006C22 5.44778 21.5523 5.00006 21 5.00006V7.00006ZM1 5.00006C0.447715 5.00006 0 5.44778 0 6.00006C0 6.55235 0.447715 7.00006 1 7.00006V5.00006ZM1 4.20006H2H1ZM1.21799 2.09208L2.10899 2.54607L1.21799 2.09208ZM4.2 1.00006V6.10352e-05V1.00006ZM2.09202 1.21805L1.63803 0.327041L2.09202 1.21805ZM4.2 15.0001V16.0001V15.0001ZM2.09202 14.7821L2.54601 13.8911L2.09202 14.7821ZM1 11.8001H5.96046e-08H1ZM1.21799 13.908L0.32698 14.362L1.21799 13.908ZM20 9.00006C20 9.55235 20.4477 10.0001 21 10.0001C21.5523 10.0001 22 9.55235 22 9.00006H20ZM13 16.0001C13.5523 16.0001 14 15.5523 14 15.0001C14 14.4478 13.5523 14.0001 13 14.0001V16.0001ZM20.782 2.09208L21.673 1.63809L20.782 2.09208ZM17.8 1.00006V2.00006V1.00006ZM19.908 1.21805L19.454 2.10906L19.908 1.21805ZM21 5.00006H1V7.00006H21V5.00006ZM20 4.20006V9.00006H22V4.20006H20ZM13 14.0001H4.2V16.0001H13V14.0001ZM2 11.8001L2 4.20006H2.38419e-07L5.96046e-08 11.8001H2ZM4.2 2.00006L17.8 2.00006V6.22869e-05L4.2 6.10352e-05V2.00006ZM2 4.20006C2 3.62351 2.00078 3.25123 2.02393 2.9679C2.04612 2.69623 2.0838 2.59551 2.10899 2.54607L0.326981 1.63809C0.134187 2.01647 0.0628707 2.40969 0.0305697 2.80503C-0.000777483 3.1887 2.38419e-07 3.65651 2.38419e-07 4.20006H2ZM4.2 6.10352e-05C3.65645 6.10352e-05 3.18864 -0.000716805 2.80497 0.0306304C2.40963 0.0629313 2.01641 0.134247 1.63803 0.327041L2.54601 2.10905C2.59545 2.08386 2.69617 2.04618 2.96784 2.02399C3.25117 2.00084 3.62345 2.00006 4.2 2.00006V6.10352e-05ZM2.10899 2.54607C2.20487 2.35791 2.35785 2.20493 2.54601 2.10905L1.63803 0.327041C1.07354 0.614661 0.614601 1.0736 0.326981 1.63809L2.10899 2.54607ZM4.2 14.0001C3.62345 14.0001 3.25117 13.9993 2.96784 13.9761C2.69617 13.9539 2.59545 13.9163 2.54601 13.8911L1.63803 15.6731C2.01641 15.8659 2.40963 15.9372 2.80497 15.9695C3.18864 16.0008 3.65645 16.0001 4.2 16.0001V14.0001ZM5.96046e-08 11.8001C5.96046e-08 12.3436 -0.000777602 12.8114 0.0305695 13.1951C0.0628704 13.5904 0.134186 13.9837 0.32698 14.362L2.10899 13.454C2.0838 13.4046 2.04612 13.3039 2.02393 13.0322C2.00078 12.7489 2 12.3766 2 11.8001H5.96046e-08ZM2.54601 13.8911C2.35785 13.7952 2.20487 13.6422 2.10899 13.454L0.32698 14.362C0.6146 14.9265 1.07354 15.3855 1.63803 15.6731L2.54601 13.8911ZM22 4.20006C22 3.65651 22.0008 3.18871 21.9694 2.80504C21.9371 2.40969 21.8658 2.01647 21.673 1.63809L19.891 2.54607C19.9162 2.59551 19.9539 2.69623 19.9761 2.9679C19.9992 3.25123 20 3.62351 20 4.20006H22ZM17.8 2.00006C18.3766 2.00006 18.7488 2.00084 19.0322 2.02399C19.3038 2.04619 19.4045 2.08386 19.454 2.10906L20.362 0.327043C19.9836 0.134249 19.5904 0.0629329 19.195 0.0306319C18.8114 -0.000715375 18.3436 6.23465e-05 17.8 6.22869e-05V2.00006ZM21.673 1.63809C21.3854 1.0736 20.9265 0.614663 20.362 0.327043L19.454 2.10906C19.6422 2.20493 19.7951 2.35791 19.891 2.54607L21.673 1.63809ZM20 15.0001C20 15.5523 19.5523 16.0001 19 16.0001V18.0001C20.6569 18.0001 22 16.6569 22 15.0001H20ZM19 16.0001C18.4477 16.0001 18 15.5523 18 15.0001H16C16 16.6569 17.3431 18.0001 19 18.0001V16.0001ZM18 15.0001C18 14.4478 18.4477 14.0001 19 14.0001V12.0001C17.3431 12.0001 16 13.3432 16 15.0001H18ZM19 14.0001C19.5523 14.0001 20 14.4478 20 15.0001H22C22 13.3432 20.6569 12.0001 19 12.0001V14.0001Z" fill="#1C1D1F"/>
  </symbol>
  <symbol id="nfc" viewBox="0 0 22 18" fill="none">
    <path d="M11 8.00009C11.5523 8.00009 12 7.55238 12 7.00009C12 6.44781 11.5523 6.00009 11 6.00009V8.00009ZM1 6.00009C0.447715 6.00009 0 6.44781 0 7.00009C0 7.55238 0.447715 8.00009 1 8.00009V6.00009ZM1.2 1.00009C0.647716 1.00009 0.200001 1.44781 0.200001 2.00009C0.200001 2.55238 0.647716 3.00009 1.2 3.00009L1.2 1.00009ZM1.2 15.0001C0.647715 15.0001 0.2 15.4478 0.2 16.0001C0.2 16.5524 0.647715 17.0001 1.2 17.0001L1.2 15.0001ZM10.782 14.9081L9.89101 14.4541L10.782 14.9081ZM7.8 16.0001L7.8 17.0001H7.8V16.0001ZM9.90798 15.7821L9.45399 14.8911L9.90798 15.7821ZM10.782 3.09211L11.673 2.63812L10.782 3.09211ZM7.8 2.00009V3.00009V2.00009ZM9.90798 2.21808L9.45399 3.10909L9.90798 2.21808ZM15.9498 4.05038C15.5592 3.65986 14.9261 3.65986 14.5355 4.05038C14.145 4.44091 14.145 5.07407 14.5355 5.4646L15.9498 4.05038ZM14.5355 12.5357C14.145 12.9262 14.145 13.5594 14.5355 13.9499C14.9261 14.3404 15.5592 14.3404 15.9498 13.9499L14.5355 12.5357ZM18.7782 1.222C18.3877 0.831477 17.7545 0.831477 17.364 1.222C16.9734 1.61253 16.9734 2.24569 17.364 2.63621L18.7782 1.222ZM17.364 15.3641C16.9734 15.7547 16.9734 16.3878 17.364 16.7783C17.7545 17.1689 18.3877 17.1689 18.7782 16.7783L17.364 15.3641ZM11 6.00009H1V8.00009H11V6.00009ZM10 5.20009V12.8001H12V5.20009H10ZM7.8 15.0001L1.2 15.0001L1.2 17.0001L7.8 17.0001L7.8 15.0001ZM1.2 3.00009L7.8 3.00009V1.00009L1.2 1.00009L1.2 3.00009ZM10 12.8001C10 13.3766 9.99922 13.7489 9.97607 14.0323C9.95388 14.3039 9.9162 14.4046 9.89101 14.4541L11.673 15.3621C11.8658 14.9837 11.9371 14.5905 11.9694 14.1951C12.0008 13.8114 12 13.3436 12 12.8001H10ZM7.8 17.0001C8.34355 17.0001 8.81136 17.0009 9.19503 16.9695C9.59037 16.9372 9.98359 16.8659 10.362 16.6731L9.45399 14.8911C9.40455 14.9163 9.30383 14.954 9.03217 14.9762C8.74883 14.9993 8.37655 15.0001 7.8 15.0001V17.0001ZM9.89101 14.4541C9.79514 14.6422 9.64215 14.7952 9.45399 14.8911L10.362 16.6731C10.9265 16.3855 11.3854 15.9265 11.673 15.3621L9.89101 14.4541ZM12 5.20009C12 4.65654 12.0008 4.18874 11.9694 3.80507C11.9371 3.40972 11.8658 3.0165 11.673 2.63812L9.89101 3.5461C9.9162 3.59555 9.95388 3.69626 9.97607 3.96793C9.99922 4.25127 10 4.62354 10 5.20009H12ZM7.8 3.00009C8.37655 3.00009 8.74883 3.00087 9.03216 3.02402C9.30383 3.04622 9.40455 3.08389 9.45399 3.10909L10.362 1.32707C9.98359 1.13428 9.59037 1.06296 9.19503 1.03066C8.81136 0.999315 8.34355 1.00009 7.8 1.00009V3.00009ZM11.673 2.63812C11.3854 2.07363 10.9265 1.61469 10.362 1.32707L9.45399 3.10909C9.64215 3.20496 9.79514 3.35794 9.89101 3.5461L11.673 2.63812ZM14.5355 5.4646C16.4882 7.41722 16.4882 10.583 14.5355 12.5357L15.9498 13.9499C18.6834 11.2162 18.6834 6.78405 15.9498 4.05038L14.5355 5.4646ZM17.364 2.63621C20.8787 6.15093 20.8787 11.8494 17.364 15.3641L18.7782 16.7783C23.0739 12.4826 23.0739 5.51777 18.7782 1.222L17.364 2.63621Z" fill="#1C1D1F"/>
  </symbol>
  <symbol id="cash" viewBox="0 0 22 16" fill="none">
    <path d="M17.8 15.0001C18.9201 15.0001 19.4802 15.0001 19.908 14.7821C20.2843 14.5904 20.5903 14.2844 20.782 13.9081C21 13.4803 21 12.9202 21 11.8001V4.20012C21 3.08002 21 2.51997 20.782 2.09214C20.5903 1.71582 20.2843 1.40986 19.908 1.21811C19.4802 1.00012 18.9201 1.00012 17.8 1.00012L4.2 1.00012C3.0799 1.00012 2.51984 1.00012 2.09202 1.21811C1.7157 1.40986 1.40973 1.71582 1.21799 2.09214C1 2.51996 1 3.08002 1 4.20012L1 11.8001C1 12.9202 1 13.4803 1.21799 13.9081C1.40973 14.2844 1.71569 14.5904 2.09202 14.7821C2.51984 15.0001 3.07989 15.0001 4.2 15.0001L17.8 15.0001Z" stroke="#1C1D1F" stroke-width="2" stroke-linecap="round" stroke-linejoin="round"/>
    <path d="M11 10.5001C12.3807 10.5001 13.5 9.38083 13.5 8.00012C13.5 6.61941 12.3807 5.50012 11 5.50012C9.61929 5.50012 8.5 6.61941 8.5 8.00012C8.5 9.38083 9.61929 10.5001 11 10.5001Z" stroke="#1C1D1F" stroke-width="2" stroke-linecap="round" stroke-linejoin="round"/>
  </symbol>
  <symbol id="cashes" viewBox="0 0 22 16" fill="none">
    <path fill-rule="evenodd" clip-rule="evenodd" d="M0 12V0H18V12H0ZM2 2V10H16V2H2ZM10.6667 8.4944C10.1734 8.8241 9.5933 9 9 9C8.2044 9 7.4413 8.6839 6.87868 8.1213C6.31607 7.5587 6 6.7956 6 6C6 5.4067 6.17595 4.8266 6.50559 4.3333C6.83524 3.83994 7.3038 3.45542 7.8519 3.22836C8.4001 3.0013 9.0033 2.94189 9.5853 3.05764C10.1672 3.1734 10.7018 3.45912 11.1213 3.87868C11.5409 4.2982 11.8266 4.8328 11.9424 5.4147C12.0581 5.9967 11.9987 6.5999 11.7716 7.1481C11.5446 7.6962 11.1601 8.1648 10.6667 8.4944ZM9.6667 5.0022C9.4693 4.8704 9.2373 4.8 9 4.8C8.6818 4.8003 8.3768 4.9269 8.1519 5.1519C7.9269 5.3768 7.8003 5.6818 7.8 6C7.8 6.2373 7.8704 6.4693 8.0022 6.6667C8.1341 6.864 8.3215 7.0178 8.5408 7.1087C8.7601 7.1995 9.0013 7.2232 9.2341 7.1769C9.4669 7.1306 9.6807 7.0164 9.8485 6.8485C10.0164 6.6807 10.1306 6.4669 10.1769 6.2341C10.2232 6.0013 10.1995 5.7601 10.1087 5.5408C10.0178 5.3215 9.864 5.1341 9.6667 5.0022ZM19 16H4V14H19C19.2651 13.9997 19.5193 13.8943 19.7068 13.7068C19.8943 13.5193 19.9997 13.2651 20 13V7V5V2H22V13C22 13.7956 21.6839 14.5587 21.1213 15.1213C20.5587 15.6839 19.7956 16 19 16Z" fill="#1C1D1F"/>
  </symbol>
  <symbol id="time" viewBox="0 0 24 24" fill="none">
    <path d="M12 6V12L16 14M22 12C22 17.5228 17.5228 22 12 22C6.47715 22 2 17.5228 2 12C2 6.47715 6.47715 2 12 2C17.5228 2 22 6.47715 22 12Z" stroke="#1C1D1F" stroke-width="2" stroke-linecap="round" stroke-linejoin="round"/>
  </symbol>
  <symbol id="phone" viewBox="0 0 14 20" fill="none">
    <path d="M7.00008 14.5833H7.00841M3.83341 18.3333H10.1667C11.1002 18.3333 11.5669 18.3333 11.9234 18.1517C12.237 17.9919 12.492 17.7369 12.6518 17.4233C12.8334 17.0668 12.8334 16.6001 12.8334 15.6667V4.33334C12.8334 3.39992 12.8334 2.93321 12.6518 2.57669C12.492 2.26308 12.237 2.00812 11.9234 1.84833C11.5669 1.66667 11.1002 1.66667 10.1667 1.66667H3.83341C2.89999 1.66667 2.43328 1.66667 2.07676 1.84833C1.76316 2.00812 1.50819 2.26308 1.3484 2.57669C1.16675 2.93321 1.16675 3.39992 1.16675 4.33334V15.6667C1.16675 16.6001 1.16675 17.0668 1.3484 17.4233C1.50819 17.7369 1.76316 17.9919 2.07676 18.1517C2.43328 18.3333 2.89999 18.3333 3.83341 18.3333ZM7.41675 14.5833C7.41675 14.8135 7.2302 15 7.00008 15C6.76996 15 6.58341 14.8135 6.58341 14.5833C6.58341 14.3532 6.76996 14.1667 7.00008 14.1667C7.2302 14.1667 7.41675 14.3532 7.41675 14.5833Z" stroke="#1C1D1F" stroke-width="1.5" stroke-linecap="round" stroke-linejoin="round"/>
  </symbol>
  <symbol id="x-circle" viewBox="0 0 22 22" fill="none">
    <path d="M14 8L8 14M8 8L14 14M21 11C21 16.5228 16.5228 21 11 21C5.47715 21 1 16.5228 1 11C1 5.47715 5.47715 1 11 1C16.5228 1 21 5.47715 21 11Z" stroke="#ED3838" stroke-width="2" stroke-linecap="round" stroke-linejoin="round"/>
  </symbol>
  <symbol id="check-circle" viewBox="0 0 22 22" fill="none">
    <path d="M6.5 11L9.5 14L15.5 8M21 11C21 16.5228 16.5228 21 11 21C5.47715 21 1 16.5228 1 11C1 5.47715 5.47715 1 11 1C16.5228 1 21 5.47715 21 11Z" stroke="currentColor" stroke-width="2" stroke-linecap="round" stroke-linejoin="round"/>
  </symbol>
  <symbol id="tablet" viewBox="0 0 18 22" fill="none">
    <path d="M13 3C13.93 3 14.395 3 14.7765 3.10222C15.8117 3.37962 16.6204 4.18827 16.8978 5.22354C17 5.60504 17 6.07003 17 7V16.2C17 17.8802 17 18.7202 16.673 19.362C16.3854 19.9265 15.9265 20.3854 15.362 20.673C14.7202 21 13.8802 21 12.2 21H5.8C4.11984 21 3.27976 21 2.63803 20.673C2.07354 20.3854 1.6146 19.9265 1.32698 19.362C1 18.7202 1 17.8802 1 16.2V7C1 6.07003 1 5.60504 1.10222 5.22354C1.37962 4.18827 2.18827 3.37962 3.22354 3.10222C3.60504 3 4.07003 3 5 3M6.6 5H11.4C11.9601 5 12.2401 5 12.454 4.89101C12.6422 4.79513 12.7951 4.64215 12.891 4.45399C13 4.24008 13 3.96005 13 3.4V2.6C13 2.03995 13 1.75992 12.891 1.54601C12.7951 1.35785 12.6422 1.20487 12.454 1.10899C12.2401 1 11.9601 1 11.4 1H6.6C6.03995 1 5.75992 1 5.54601 1.10899C5.35785 1.20487 5.20487 1.35785 5.10899 1.54601C5 1.75992 5 2.03995 5 2.6V3.4C5 3.96005 5 4.24008 5.10899 4.45399C5.20487 4.64215 5.35785 4.79513 5.54601 4.89101C5.75992 5 6.03995 5 6.6 5Z" stroke="currentColor" stroke-width="2" stroke-linecap="round" stroke-linejoin="round"/>
  </symbol>
  <symbol id="drink" viewBox="0 0 24 24" fill="none">
    <path d="M8.5 7C8.5 7 8 6.5 8 5.5C8 4.5 8.5 4.5 8.5 3.5C8.5 2.5 8 2 8 2M13.5 7C13.5 7 13 6.5 13 5.5C13 4.5 13.5 4.5 13.5 3.5C13.5 2.5 13 2 13 2M18 13.5H21.5M18 17.2C18 18.8802 18 19.7202 17.673 20.362C17.3854 20.9265 16.9265 21.3854 16.362 21.673C15.7202 22 14.8802 22 13.2 22H8.8C7.11984 22 6.27976 22 5.63803 21.673C5.07354 21.3854 4.6146 20.9265 4.32698 20.362C4 19.7202 4 18.8802 4 17.2V11H18V13V17.2Z" stroke="currentColor" stroke-width="2" stroke-linecap="round" stroke-linejoin="round"/>
  </symbol>
  <symbol id="car" viewBox="0 0 24 24" fill="none">
    <path d="M17.5556 10.5556H19.7778C20.3671 10.5556 20.9324 10.7897 21.3491 11.2064C21.7659 11.6232 22 12.1884 22 12.7778V15C22 15.2947 21.8829 15.5773 21.6746 15.7857C21.4662 15.994 21.1836 16.1111 20.8889 16.1111H19.2222M17.5556 10.5556H10.3333H4.22222M17.5556 10.5556L14.87 6.07889C14.6726 5.74983 14.3933 5.47751 14.0593 5.28844C13.7254 5.09937 13.3482 5 12.9644 5H10.3333H7.15556C6.64164 4.9998 6.14353 5.17772 5.74605 5.50349C5.34857 5.82925 5.07628 6.28271 4.97556 6.78667L4.22222 10.5556M19.2222 16.1111C19.2222 16.7005 18.9881 17.2657 18.5713 17.6825C18.1546 18.0992 17.5894 18.3333 17 18.3333C16.4106 18.3333 15.8454 18.0992 15.4287 17.6825C15.0119 17.2657 14.7778 16.7005 14.7778 16.1111M19.2222 16.1111C19.2222 15.5217 18.9881 14.9565 18.5713 14.5398C18.1546 14.123 17.5894 13.8889 17 13.8889C16.4106 13.8889 15.8454 14.123 15.4287 14.5398C15.0119 14.9565 14.7778 15.5217 14.7778 16.1111M4.22222 10.5556C3.63285 10.5556 3.06762 10.7897 2.65087 11.2064C2.23413 11.6232 2 12.1884 2 12.7778V15C2 15.2947 2.11706 15.5773 2.32544 15.7857C2.53381 15.994 2.81643 16.1111 3.11111 16.1111H4.77778M4.77778 16.1111C4.77778 16.7005 5.0119 17.2657 5.42865 17.6825C5.8454 18.0992 6.41063 18.3333 7 18.3333C7.58937 18.3333 8.1546 18.0992 8.57135 17.6825C8.9881 17.2657 9.22222 16.7005 9.22222 16.1111M4.77778 16.1111C4.77778 15.5217 5.0119 14.9565 5.42865 14.5398C5.8454 14.123 6.41063 13.8889 7 13.8889C7.58937 13.8889 8.1546 14.123 8.57135 14.5398C8.9881 14.9565 9.22222 15.5217 9.22222 16.1111M9.22222 16.1111H14.7778" stroke="currentColor" stroke-width="2" stroke-linecap="round" stroke-linejoin="round"/>
  </symbol>
  <symbol id="bonuses" viewBox="0 0 12 12" fill="none">
    <path d="M7.96887 7.96887C9.68017 7.73976 11 6.27401 11 4.5C11 2.567 9.433 1 7.5 1C5.72599 1 4.26024 2.31983 4.03113 4.03113M8 7.5C8 9.433 6.433 11 4.5 11C2.567 11 1 9.433 1 7.5C1 5.567 2.567 4 4.5 4C6.433 4 8 5.567 8 7.5Z" stroke="currentColor" stroke-linecap="round" stroke-linejoin="round"/>
  </symbol>
  <symbol id="alert-circle" viewBox="0 0 22 22" fill="none">
    <path d="M11 7V11M11 15H11.01M21 11C21 16.5228 16.5228 21 11 21C5.47715 21 1 16.5228 1 11C1 5.47715 5.47715 1 11 1C16.5228 1 21 5.47715 21 11Z" stroke="currentColor" stroke-width="2" stroke-linecap="round" stroke-linejoin="round"/>
  </symbol>
  <symbol id="chat" viewBox="0 0 24 24" fill="none">
    <path d="M7 8.5H12M7 12H15M7 18V20.3355C7 20.8684 7 21.1348 7.10923 21.2716C7.20422 21.3906 7.34827 21.4599 7.50054 21.4597C7.67563 21.4595 7.88367 21.2931 8.29976 20.9602L10.6852 19.0518C11.1725 18.662 11.4162 18.4671 11.6875 18.3285C11.9282 18.2055 12.1844 18.1156 12.4492 18.0613C12.7477 18 13.0597 18 13.6837 18H16.2C17.8802 18 18.7202 18 19.362 17.673C19.9265 17.3854 20.3854 16.9265 20.673 16.362C21 15.7202 21 14.8802 21 13.2V7.8C21 6.11984 21 5.27976 20.673 4.63803C20.3854 4.07354 19.9265 3.6146 19.362 3.32698C18.7202 3 17.8802 3 16.2 3H7.8C6.11984 3 5.27976 3 4.63803 3.32698C4.07354 3.6146 3.6146 4.07354 3.32698 4.63803C3 5.27976 3 6.11984 3 7.8V14C3 14.93 3 15.395 3.10222 15.7765C3.37962 16.8117 4.18827 17.6204 5.22354 17.8978C5.60504 18 6.07003 18 7 18Z" stroke="#1C1D1F" stroke-width="2" stroke-linecap="round" stroke-linejoin="round"/>
  </symbol>
  <symbol id="check" viewBox="0 0 14 10" fill="none">
    <path d="M12.3334 1L5.00002 8.33333L1.66669 5" stroke="white" stroke-width="1.5" stroke-linecap="round" stroke-linejoin="round"/>
  </symbol>
  <symbol id="loyalty" viewBox="0 0 24 24" fill="none">
    <path d="M2.93726 11.9373C2.59135 11.5914 2.4184 11.4184 2.29472 11.2166C2.18506 11.0376 2.10425 10.8425 2.05526 10.6385C2 10.4083 2 10.1637 2 9.67451L2 5.2C2 4.07989 2 3.51984 2.21799 3.09202C2.40973 2.71569 2.7157 2.40973 3.09202 2.21799C3.51984 2 4.0799 2 5.2 2L9.67452 2C10.1637 2 10.4083 2 10.6385 2.05526C10.8425 2.10425 11.0376 2.18506 11.2166 2.29472C11.4184 2.4184 11.5914 2.59135 11.9373 2.93726L19.6059 10.6059C20.7939 11.7939 21.388 12.388 21.6105 13.0729C21.8063 13.6755 21.8063 14.3245 21.6105 14.927C21.388 15.612 20.7939 16.2061 19.6059 17.3941L17.3941 19.6059C16.2061 20.7939 15.612 21.388 14.927 21.6105C14.3245 21.8063 13.6755 21.8063 13.0729 21.6105C12.388 21.388 11.7939 20.7939 10.6059 19.6059L2.93726 11.9373Z" stroke="#1C1D1F" stroke-width="2" stroke-linecap="round" stroke-linejoin="round"/>
    <g clip-path="url(#clip0_3749_587)">
    <path fill-rule="evenodd" clip-rule="evenodd" d="M13.9976 12.7119C13.3311 11.9328 12.2198 11.7232 11.3847 12.4367C10.5497 13.1501 10.4322 14.343 11.0879 15.1868C11.6331 15.8884 13.2831 17.368 13.8239 17.8469C13.8844 17.9005 13.9146 17.9273 13.9499 17.9378C13.9807 17.947 14.0144 17.947 14.0452 17.9378C14.0805 17.9273 14.1107 17.9005 14.1712 17.8469C14.712 17.368 16.362 15.8884 16.9072 15.1868C17.5629 14.343 17.4597 13.1426 16.6104 12.4367C15.761 11.7307 14.664 11.9328 13.9976 12.7119Z" stroke="black" stroke-width="2" stroke-linecap="round" stroke-linejoin="round"/>
    </g>
    <defs>
    <clipPath id="clip0_3749_587">
    <rect width="10" height="8" fill="white" transform="translate(9 11)"/>
    </clipPath>
    </defs>
  </symbol>
  <symbol id="zip" viewBox="0 0 12 12" fill="none">
    <path d="M6.50042 1L2.04715 6.34393C1.87274 6.55321 1.78554 6.65785 1.78421 6.74623C1.78305 6.82306 1.81728 6.89615 1.87705 6.94445C1.94579 7 2.08201 7 2.35444 7H6.00042L5.50042 11L9.95369 5.65607C10.1281 5.44679 10.2153 5.34215 10.2166 5.25377C10.2178 5.17694 10.1836 5.10385 10.1238 5.05555C10.055 5 9.91883 5 9.6464 5H6.00042L6.50042 1Z" stroke="#1C1D1F" stroke-linecap="round" stroke-linejoin="round"/>
  </symbol>
  <symbol id="add-cart" viewBox="0 0 25 24" fill="none">
    <path d="M4.13281 7.40138L5.12935 7.48443L4.13281 7.40138ZM4.67071 4.48486L3.80762 3.97981L4.67071 4.48486ZM8.91623 3V2V3ZM5.9651 3.29384L6.39673 4.1959L5.9651 3.29384ZM4.83177 20.6382L5.30785 19.7588L4.83177 20.6382ZM3.43281 15.8014L2.43626 15.7183L3.43281 15.8014ZM3.51227 19.2042L4.42818 18.8028L3.51227 19.2042ZM20.8664 7.40138L21.8629 7.31834V7.31834L20.8664 7.40138ZM20.3285 4.48486L19.4654 4.9899L20.3285 4.48486ZM16.083 3V4V3ZM19.0341 3.29385L19.4657 2.39179L19.0341 3.29385ZM17.4996 8C17.4996 7.44771 17.0519 7 16.4996 7C15.9473 7 15.4996 7.44771 15.4996 8H17.4996ZM12.4996 12V13V12ZM9.49959 8C9.49959 7.44771 9.05187 7 8.49959 7C7.9473 7 7.49959 7.44771 7.49959 8H9.49959ZM12.4996 22C13.0519 22 13.4996 21.5523 13.4996 21C13.4996 20.4477 13.0519 20 12.4996 20V22ZM20.2198 11.6844C20.2657 12.2348 20.749 12.6438 21.2994 12.5979C21.8498 12.5521 22.2588 12.0687 22.2129 11.5183L20.2198 11.6844ZM4.42935 15.8844L5.12935 7.48443L3.13626 7.31834L2.43626 15.7183L4.42935 15.8844ZM8.91623 4L16.083 4V2L8.91623 2V4ZM5.12935 7.48443C5.19536 6.69239 5.24078 6.15601 5.30829 5.74227C5.37382 5.34067 5.44907 5.13471 5.5338 4.9899L3.80762 3.97981C3.54853 4.42258 3.41952 4.89856 3.3344 5.42017C3.25126 5.92965 3.19964 6.55775 3.13626 7.31834L5.12935 7.48443ZM8.91623 2C8.153 2 7.52279 1.99928 7.00817 2.03982C6.48129 2.08132 5.99623 2.17037 5.53348 2.39179L6.39673 4.1959C6.54808 4.12348 6.75958 4.0656 7.16523 4.03364C7.58314 4.00072 8.12144 4 8.91623 4V2ZM5.5338 4.9899C5.73565 4.64496 6.03622 4.3684 6.39673 4.1959L5.53348 2.39179C4.81245 2.7368 4.21132 3.28992 3.80762 3.97981L5.5338 4.9899ZM8.21623 20C7.29366 20 6.66403 19.9992 6.1796 19.9583C5.70589 19.9184 5.46868 19.8459 5.30785 19.7588L4.3557 21.5176C4.86316 21.7923 5.41278 21.9007 6.01153 21.9512C6.59956 22.0008 7.32802 22 8.21623 22V20ZM2.43626 15.7183C2.3625 16.6035 2.30118 17.3293 2.30176 17.9195C2.30236 18.5203 2.36475 19.0771 2.59637 19.6056L4.42818 18.8028C4.35477 18.6353 4.30223 18.3929 4.30176 17.9175C4.30128 17.4313 4.35274 16.8038 4.42935 15.8844L2.43626 15.7183ZM5.30785 19.7588C4.91641 19.5469 4.60685 19.2105 4.42818 18.8028L2.59637 19.6056C2.9537 20.4209 3.57283 21.0938 4.3557 21.5176L5.30785 19.7588ZM21.8629 7.31834C21.7995 6.55775 21.7479 5.92965 21.6648 5.42017C21.5797 4.89856 21.4506 4.42258 21.1916 3.97981L19.4654 4.9899C19.5501 5.13471 19.6254 5.34068 19.6909 5.74228C19.7584 6.15601 19.8038 6.69239 19.8698 7.48443L21.8629 7.31834ZM16.083 4C16.8777 4 17.416 4.00072 17.8339 4.03364C18.2396 4.0656 18.4511 4.12348 18.6024 4.1959L19.4657 2.39179C19.0029 2.17037 18.5179 2.08133 17.991 2.03982C17.4764 1.99928 16.8462 2 16.083 2V4ZM21.1916 3.97981C20.7879 3.28992 20.1867 2.7368 19.4657 2.39179L18.6024 4.1959C18.963 4.3684 19.2635 4.64496 19.4654 4.9899L21.1916 3.97981ZM15.4996 8C15.4996 8.79565 15.1835 9.55871 14.6209 10.1213L16.0351 11.5355C16.9728 10.5979 17.4996 9.32608 17.4996 8H15.4996ZM14.6209 10.1213C14.0583 10.6839 13.2952 11 12.4996 11V13C13.8257 13 15.0974 12.4732 16.0351 11.5355L14.6209 10.1213ZM12.4996 11C11.7039 11 10.9409 10.6839 10.3783 10.1213L8.96405 11.5355C9.90174 12.4732 11.1735 13 12.4996 13V11ZM10.3783 10.1213C9.81566 9.55871 9.49959 8.79565 9.49959 8H7.49959C7.49959 9.32608 8.02637 10.5979 8.96405 11.5355L10.3783 10.1213ZM12.4996 20H8.21623V22H12.4996V20ZM19.8698 7.48443L20.2198 11.6844L22.2129 11.5183L21.8629 7.31834L19.8698 7.48443Z" fill="currentColor" />
    <path d="M19.5 16V22M16.5 19H22.5" stroke="currentColor" stroke-width="2" stroke-linecap="round" stroke-linejoin="round"/>
  </symbol>
  <symbol id="replace" viewBox="0 0 24 24" fill="none">
    <path d="M9 2L12 5M12 5L9 8M12 5H6.8C5.11984 5 4.27976 5 3.63803 5.32698C3.07354 5.6146 2.6146 6.07354 2.32698 6.63803C2 7.27976 2 10.1198 2 11.8M12 19H17.2C18.8802 19 19.7202 19 20.362 18.673C20.9265 18.3854 21.3854 17.9265 21.673 17.362C22 16.7202 22 13.8802 22 12.2M12 19L15 22M12 19L15 16" stroke="black" stroke-width="2" stroke-linecap="round" stroke-linejoin="round"/>
    <path d="M16 3.37143C16 2.89138 16 2.65136 16.0934 2.46801C16.1756 2.30673 16.3067 2.1756 16.468 2.09342C16.6514 2 16.8914 2 17.3714 2H20.6286C21.1086 2 21.3486 2 21.532 2.09342C21.6933 2.1756 21.8244 2.30673 21.9066 2.46801C22 2.65136 22 2.89138 22 3.37143V6.62857C22 7.10862 22 7.34864 21.9066 7.53199C21.8244 7.69327 21.6933 7.8244 21.532 7.90658C21.3486 8 21.1086 8 20.6286 8H17.3714C16.8914 8 16.6514 8 16.468 7.90658C16.3067 7.8244 16.1756 7.69327 16.0934 7.53199C16 7.34864 16 7.10862 16 6.62857V3.37143Z" stroke="black" stroke-width="2" stroke-linecap="round" stroke-linejoin="round"/>
    <path d="M2 17.3714C2 16.8914 2 16.6514 2.09342 16.468C2.1756 16.3067 2.30673 16.1756 2.46801 16.0934C2.65136 16 2.89138 16 3.37143 16H6.62857C7.10862 16 7.34864 16 7.53199 16.0934C7.69327 16.1756 7.8244 16.3067 7.90658 16.468C8 16.6514 8 16.8914 8 17.3714V20.6286C8 21.1086 8 21.3486 7.90658 21.532C7.8244 21.6933 7.69327 21.8244 7.53199 21.9066C7.34864 22 7.10862 22 6.62857 22H3.37143C2.89138 22 2.65136 22 2.46801 21.9066C2.30673 21.8244 2.1756 21.6933 2.09342 21.532C2 21.3486 2 21.1086 2 20.6286V17.3714Z" stroke="black" stroke-width="2" stroke-linecap="round" stroke-linejoin="round"/>
  </symbol>
  <symbol id="history" viewBox="0 0 25 24" fill="none">
    <path d="M11.5 8.08133V13.0813L14.5 15.0813M3.5 6.08133L4.45528 8.7431L7.11785 7.78754M4.39771 8.16314C4.43101 8.09253 4.46511 8.02255 4.5 7.95321C6.68619 3.60796 11.9518 1.77505 16.3769 3.86196C20.8725 5.98217 22.7982 11.3454 20.678 15.8411C18.5578 20.3368 13.1946 22.2625 8.69889 20.1423C5.71243 18.7338 3.86007 15.8943 3.57448 12.8286" stroke="currentColor" stroke-width="2" stroke-linecap="round" stroke-linejoin="round"/>
  </symbol>
  <symbol id="settings" viewBox="0 0 24 24" fill="none">
    <path d="M12.0005 15C13.6573 15 15.0005 13.6569 15.0005 12C15.0005 10.3431 13.6573 9 12.0005 9C10.3436 9 9.00049 10.3431 9.00049 12C9.00049 13.6569 10.3436 15 12.0005 15Z" stroke="currentColor" stroke-width="2" stroke-linecap="round" stroke-linejoin="round"/>
    <path d="M9.28957 19.3711L9.87402 20.6856C10.0478 21.0768 10.3313 21.4093 10.6902 21.6426C11.0492 21.8759 11.4681 22.0001 11.8962 22C12.3244 22.0001 12.7433 21.8759 13.1022 21.6426C13.4612 21.4093 13.7447 21.0768 13.9185 20.6856L14.5029 19.3711C14.711 18.9047 15.0609 18.5159 15.5029 18.26C15.9477 18.0034 16.4622 17.8941 16.9729 17.9478L18.4029 18.1C18.8286 18.145 19.2582 18.0656 19.6396 17.8713C20.021 17.6771 20.3379 17.3763 20.5518 17.0056C20.766 16.635 20.868 16.2103 20.8455 15.7829C20.823 15.3555 20.677 14.9438 20.4251 14.5978L19.5785 13.4344C19.277 13.0171 19.1159 12.5148 19.1185 12C19.1184 11.4866 19.281 10.9864 19.5829 10.5711L20.4296 9.40778C20.6814 9.06175 20.8275 8.65007 20.85 8.22267C20.8725 7.79528 20.7704 7.37054 20.5562 7C20.3423 6.62923 20.0255 6.32849 19.644 6.13423C19.2626 5.93997 18.833 5.86053 18.4074 5.90556L16.9774 6.05778C16.4667 6.11141 15.9521 6.00212 15.5074 5.74556C15.0645 5.48825 14.7144 5.09736 14.5074 4.62889L13.9185 3.31444C13.7447 2.92317 13.4612 2.59072 13.1022 2.3574C12.7433 2.12408 12.3244 1.99993 11.8962 2C11.4681 1.99993 11.0492 2.12408 10.6902 2.3574C10.3313 2.59072 10.0478 2.92317 9.87402 3.31444L9.28957 4.62889C9.0825 5.09736 8.73245 5.48825 8.28957 5.74556C7.84479 6.00212 7.33024 6.11141 6.81957 6.05778L5.38513 5.90556C4.95946 5.86053 4.52987 5.93997 4.14844 6.13423C3.76702 6.32849 3.45014 6.62923 3.23624 7C3.02206 7.37054 2.92002 7.79528 2.94251 8.22267C2.96499 8.65007 3.11103 9.06175 3.36291 9.40778L4.20957 10.5711C4.51151 10.9864 4.67411 11.4866 4.67402 12C4.67411 12.5134 4.51151 13.0137 4.20957 13.4289L3.36291 14.5922C3.11103 14.9382 2.96499 15.3499 2.94251 15.7773C2.92002 16.2047 3.02206 16.6295 3.23624 17C3.45036 17.3706 3.76727 17.6712 4.14864 17.8654C4.53001 18.0596 4.95949 18.1392 5.38513 18.0944L6.81513 17.9422C7.3258 17.8886 7.84034 17.9979 8.28513 18.2544C8.72966 18.511 9.08134 18.902 9.28957 19.3711Z" stroke="currentColor" stroke-width="2" stroke-linecap="round" stroke-linejoin="round"/>
  </symbol>
  <symbol id="star-rate" viewBox="0 0 40 40" fill="currentColor">
    <path d="M18.8044 5.75549C19.1885 4.97725 19.3806 4.58814 19.6414 4.46382C19.8682 4.35565 20.1318 4.35565 20.3586 4.46382C20.6194 4.58814 20.8115 4.97725 21.1956 5.75549L24.8401 13.1388C24.9535 13.3685 25.0102 13.4834 25.0931 13.5726C25.1664 13.6516 25.2544 13.7155 25.3522 13.761C25.4626 13.8123 25.5893 13.8309 25.8428 13.8679L33.995 15.0595C34.8534 15.1849 35.2826 15.2477 35.4813 15.4574C35.6541 15.6398 35.7354 15.8905 35.7025 16.1396C35.6647 16.4259 35.3539 16.7286 34.7324 17.3339L28.8357 23.0773C28.6519 23.2564 28.56 23.3459 28.5007 23.4524C28.4482 23.5467 28.4145 23.6503 28.4015 23.7575C28.3868 23.8785 28.4085 24.0049 28.4519 24.2579L29.8432 32.3702C29.99 33.2258 30.0634 33.6536 29.9255 33.9075C29.8055 34.1283 29.5922 34.2833 29.3451 34.3291C29.061 34.3817 28.6768 34.1797 27.9085 33.7756L20.6206 29.943C20.3935 29.8236 20.28 29.7639 20.1604 29.7404C20.0545 29.7197 19.9455 29.7197 19.8396 29.7404C19.72 29.7639 19.6065 29.8236 19.3794 29.943L12.0915 33.7756C11.3232 34.1797 10.939 34.3817 10.6549 34.3291C10.4078 34.2833 10.1945 34.1283 10.0745 33.9075C9.93664 33.6536 10.01 33.2258 10.1568 32.3702L11.5481 24.2579C11.5915 24.0049 11.6132 23.8785 11.5985 23.7575C11.5855 23.6503 11.5518 23.5467 11.4993 23.4524C11.44 23.3459 11.3481 23.2564 11.1643 23.0773L5.26757 17.3339C4.64608 16.7286 4.33533 16.4259 4.29752 16.1396C4.26462 15.8905 4.34589 15.6398 4.51872 15.4574C4.71736 15.2477 5.14659 15.1849 6.00504 15.0595L14.1572 13.8679C14.4107 13.8309 14.5374 13.8123 14.6478 13.761C14.7456 13.7155 14.8336 13.6516 14.9069 13.5726C14.9898 13.4834 15.0465 13.3685 15.1599 13.1388L18.8044 5.75549Z" fill="currentColor"/>
  </symbol>
  <symbol id="save" viewBox="0 0 25 24" fill="none">
    <path d="M7.5 3.00098V6.40098C7.5 6.96103 7.5 7.24106 7.60899 7.45497C7.70487 7.64313 7.85785 7.79611 8.04601 7.89198C8.25992 8.00098 8.53995 8.00098 9.1 8.00098H15.9C16.4601 8.00098 16.7401 8.00098 16.954 7.89198C17.1422 7.79611 17.2951 7.64313 17.391 7.45497C17.5 7.24106 17.5 6.96103 17.5 6.40098V4.00098M17.5 21.001V14.601C17.5 14.0409 17.5 13.7609 17.391 13.547C17.2951 13.3588 17.1422 13.2058 16.954 13.11C16.7401 13.001 16.4601 13.001 15.9 13.001H9.1C8.53995 13.001 8.25992 13.001 8.04601 13.11C7.85785 13.2058 7.70487 13.3588 7.60899 13.547C7.5 13.7609 7.5 14.0409 7.5 14.601V21.001M21.5 9.32646V16.201C21.5 17.8811 21.5 18.7212 21.173 19.3629C20.8854 19.9274 20.4265 20.3864 19.862 20.674C19.2202 21.001 18.3802 21.001 16.7 21.001H8.3C6.61984 21.001 5.77976 21.001 5.13803 20.674C4.57354 20.3864 4.1146 19.9274 3.82698 19.3629C3.5 18.7212 3.5 17.8811 3.5 16.201V7.80098C3.5 6.12082 3.5 5.28074 3.82698 4.63901C4.1146 4.07452 4.57354 3.61558 5.13803 3.32796C5.77976 3.00098 6.61984 3.00098 8.3 3.00098H15.1745C15.6637 3.00098 15.9083 3.00098 16.1385 3.05624C16.3425 3.10523 16.5376 3.18604 16.7166 3.2957C16.9184 3.41938 17.0914 3.59233 17.4373 3.93823L20.5627 7.06372C20.9086 7.40962 21.0816 7.58257 21.2053 7.78441C21.3149 7.96335 21.3957 8.15844 21.4447 8.36251C21.5 8.59269 21.5 8.83728 21.5 9.32646Z" stroke="black" stroke-width="2" stroke-linecap="round" stroke-linejoin="round"/>
  </symbol>
  <symbol id="presets" viewBox="0 0 24 24" fill="none">
    <path d="M11 13L17 13M17 13C17 14.1046 17.8954 15 19 15C20.1046 15 21 14.1046 21 13C21 11.8954 20.1046 11 19 11C17.8954 11 17 11.8954 17 13Z" stroke="#1C1D1F" stroke-width="2" stroke-linecap="round" stroke-linejoin="round"/>
    <path d="M21 19L15 19M15 19C15 17.8954 14.1046 17 13 17C11.8954 17 11 17.8954 11 19C11 20.1046 11.8954 21 13 21C14.1046 21 15 20.1046 15 19Z" stroke="#1C1D1F" stroke-width="2" stroke-linecap="round" stroke-linejoin="round"/>
    <path d="M7 20L6 19.9983C4.83507 19.9902 4.16873 19.9434 3.63803 19.673C3.07354 19.3854 2.6146 18.9265 2.32698 18.362C2 17.7202 2 16.8802 2 15.2V6.8C2 5.11984 2 4.27976 2.32698 3.63803C2.6146 3.07354 3.07354 2.6146 3.63803 2.32698C4.27976 2 5.11984 2 6.8 2H15.2C16.8802 2 17.7202 2 18.362 2.32698C18.9265 2.6146 19.3854 3.07354 19.673 3.63803C19.9434 4.16873 19.9902 4.83507 19.9983 6L20 7" stroke="#1C1D1F" stroke-width="2" stroke-linecap="round" stroke-linejoin="round"/>
  </symbol>
  <symbol id="trash" viewBox="0 0 20 22" fill="none">
    <path d="M14 5V4.2C14 3.0799 14 2.51984 13.782 2.09202C13.5903 1.71569 13.2843 1.40973 12.908 1.21799C12.4802 1 11.9201 1 10.8 1H9.2C8.07989 1 7.51984 1 7.09202 1.21799C6.71569 1.40973 6.40973 1.71569 6.21799 2.09202C6 2.51984 6 3.0799 6 4.2V5M1 5H19M17 5V16.2C17 17.8802 17 18.7202 16.673 19.362C16.3854 19.9265 15.9265 20.3854 15.362 20.673C14.7202 21 13.8802 21 12.2 21H7.8C6.11984 21 5.27976 21 4.63803 20.673C4.07354 20.3854 3.6146 19.9265 3.32698 19.362C3 18.7202 3 17.8802 3 16.2V5" stroke="currentColor" stroke-width="2" stroke-linecap="round" stroke-linejoin="round"/>
  </symbol>
  <symbol id="edit" viewBox="0 0 16 16" fill="none">
    <path d="M7.33398 2.66666H4.53398C3.41388 2.66666 2.85383 2.66666 2.426 2.88464C2.04968 3.07639 1.74372 3.38235 1.55197 3.75867C1.33398 4.1865 1.33398 4.74655 1.33398 5.86666V11.4667C1.33398 12.5868 1.33398 13.1468 1.55197 13.5746C1.74372 13.951 2.04968 14.2569 2.426 14.4487C2.85383 14.6667 3.41388 14.6667 4.53398 14.6667H10.134C11.2541 14.6667 11.8141 14.6667 12.242 14.4487C12.6183 14.2569 12.9243 13.951 13.116 13.5746C13.334 13.1468 13.334 12.5868 13.334 11.4667V8.66666M5.33397 10.6667H6.45033C6.77645 10.6667 6.93951 10.6667 7.09296 10.6298C7.22901 10.5972 7.35907 10.5433 7.47836 10.4702C7.61292 10.3877 7.72822 10.2724 7.95882 10.0418L14.334 3.66666C14.8863 3.11437 14.8863 2.21894 14.334 1.66666C13.7817 1.11437 12.8863 1.11437 12.334 1.66665L5.95881 8.04182C5.7282 8.27242 5.6129 8.38772 5.53045 8.52228C5.45734 8.64157 5.40347 8.77163 5.37081 8.90768C5.33397 9.06113 5.33397 9.22419 5.33397 9.55031V10.6667Z" stroke="#1C1D1F" stroke-width="1.5" stroke-linecap="round" stroke-linejoin="round"/>
  </symbol>
  <symbol id="at-the-table" viewBox="0 0 26 24" fill="none">
    <path d="M2.83915 20.3301L3.52482 14.4176M3.52482 14.4176H8.70838M3.52482 14.4176C1.7364 14.4176 1.73633 11.7458 1.73633 10.3315V3.81836C3.38737 3.81836 4.35645 4.13479 4.35582 5.69157C4.35334 11.7458 4.69519 11.7458 8.83042 11.7458C10.558 11.7458 10.8728 12.3086 10.9148 14.4176H8.70838M8.70838 14.4176L9.26533 20.3301" stroke="currentColor" stroke-width="2" stroke-linecap="round" stroke-linejoin="round"/>
    <path d="M16.9232 7H23.0026C24.5979 7 25.7821 7.00016 24.3703 7.00016L16.9232 7ZM16.9232 7V20.5H14H20M16.9232 7H11.4219C9.70298 7 8.20151 7.00016 9.47628 7.00016L16.9232 7Z" stroke="currentColor" stroke-width="2" stroke-linecap="round" stroke-linejoin="round"/>
  </symbol>
  <symbol id="paper-bag" viewBox="0 0 24 24" fill="none">
    <path d="M15.6531 22.0001H5.24649C4.68556 22.0001 4.40509 22.0001 4.19233 21.8925C4.00387 21.7973 3.85314 21.6481 3.75587 21.4607C3.64607 21.2491 3.64307 20.9658 3.63706 20.3993C3.57025 14.0952 3.25506 8.80717 6.30927 6.5M15.6531 22.0001H19.9217C20.4847 22.0001 20.7661 22.0001 20.9796 21.8917C21.1684 21.7958 21.3198 21.645 21.4164 21.4566C21.5257 21.2435 21.5268 20.9599 21.5291 20.3928C21.5542 14.0916 21.7384 8.80637 18.6219 6.5M15.6531 22.0001C15.6531 15 15 9 18.6219 6.5M18.6219 6.5H6.30927M18.6219 6.5V4.37637C18.6219 3.81631 18.6219 3.53629 18.5129 3.32238C18.417 3.13421 18.2641 2.98123 18.0759 2.88536C17.862 2.77637 17.582 2.77637 17.0219 2.77637H7.90927C7.34922 2.77637 7.06919 2.77637 6.85528 2.88536C6.66712 2.98123 6.51414 3.13421 6.41826 3.32238C6.30927 3.53629 6.30927 3.81631 6.30927 4.37637V6.5" stroke="currentColor" stroke-width="2" stroke-linecap="round" stroke-linejoin="round"/>
  </symbol>
  <symbol id="promocode" viewBox="0 0 24 24" fill="none">
    <path d="M8 8H8.01M2 5.2L2 9.67451C2 10.1637 2 10.4083 2.05526 10.6385C2.10425 10.8425 2.18506 11.0376 2.29472 11.2166C2.4184 11.4184 2.59135 11.5914 2.93726 11.9373L10.6059 19.6059C11.7939 20.7939 12.388 21.388 13.0729 21.6105C13.6755 21.8063 14.3245 21.8063 14.927 21.6105C15.612 21.388 16.2061 20.7939 17.3941 19.6059L19.6059 17.3941C20.7939 16.2061 21.388 15.612 21.6105 14.927C21.8063 14.3245 21.8063 13.6755 21.6105 13.0729C21.388 12.388 20.7939 11.7939 19.6059 10.6059L11.9373 2.93726C11.5914 2.59135 11.4184 2.4184 11.2166 2.29472C11.0376 2.18506 10.8425 2.10425 10.6385 2.05526C10.4083 2 10.1637 2 9.67452 2L5.2 2C4.0799 2 3.51984 2 3.09202 2.21799C2.7157 2.40973 2.40973 2.71569 2.21799 3.09202C2 3.51984 2 4.07989 2 5.2ZM8.5 8C8.5 8.27614 8.27614 8.5 8 8.5C7.72386 8.5 7.5 8.27614 7.5 8C7.5 7.72386 7.72386 7.5 8 7.5C8.27614 7.5 8.5 7.72386 8.5 8Z" stroke="#1C1D1F" stroke-width="2" stroke-linecap="round" stroke-linejoin="round"/>
  </symbol>
  <symbol id="thumb-up" viewBox="0 0 16 16" fill="none">
    <path d="M4.59844 6.9999H3.95844C3.06235 6.9999 2.61431 6.9999 2.27205 7.17429C1.97099 7.32769 1.72622 7.57246 1.57283 7.87352C1.39844 8.21578 1.39844 8.66382 1.39844 9.5599V12.0399C1.39844 12.936 1.39844 13.384 1.57283 13.7263C1.72622 14.0273 1.97099 14.2721 2.27205 14.4255C2.61431 14.5999 3.06235 14.5999 3.95844 14.5999H4.59844M4.59844 6.9999H4.63293C4.97902 6.9999 5.15207 6.9999 5.29748 6.94051C5.42583 6.88809 5.53835 6.80322 5.62401 6.69421C5.72106 6.57071 5.7686 6.40432 5.86368 6.07155L7.03292 1.97922C7.13089 1.63631 7.44431 1.3999 7.80094 1.3999C8.68321 1.3999 9.39844 2.11513 9.39844 2.9974V4.9199C9.39844 5.36794 9.39844 5.59197 9.48563 5.7631C9.56233 5.91362 9.68472 6.03601 9.83525 6.11271C10.0064 6.1999 10.2304 6.1999 10.6784 6.1999H11.7425C12.8946 6.1999 13.4672 6.1999 13.8545 6.43983C14.1937 6.65001 14.4495 6.97934 14.5584 7.36323C14.6828 7.80146 14.515 8.35537 14.1985 9.46319L13.2624 12.7432C13.0723 13.4087 12.9765 13.7415 12.7824 13.9885C12.6111 14.2065 12.3911 14.3763 12.1344 14.4811C11.8436 14.5999 11.4986 14.5999 10.8064 14.5999H4.59844M4.59844 6.9999V14.5999" stroke="white" stroke-width="1.5" stroke-linejoin="round"/>
  </symbol>
  <symbol id="info-circle" viewBox="0 0 36 36" fill="none">
    <path d="M18 24V18M18 12H18.015M33 18C33 26.2843 26.2843 33 18 33C9.71573 33 3 26.2843 3 18C3 9.71573 9.71573 3 18 3C26.2843 3 33 9.71573 33 18Z" stroke="#E19A0F" stroke-width="2" stroke-linecap="round" stroke-linejoin="round"/>
  </symbol>
</svg>

